<?xml version="1.0" standalone="no"?>
<!DOCTYPE svg PUBLIC "-//W3C//DTD SVG 20010904//EN"
 "http://www.w3.org/TR/2001/REC-SVG-20010904/DTD/svg10.dtd">
<svg version="1.0" xmlns="http://www.w3.org/2000/svg"
 width="1000.000000pt" height="1125.000000pt" viewBox="0 0 1000.000000 1125.000000"
 preserveAspectRatio="xMidYMid meet">
<metadata>
Created by potrace 1.16, written by Peter Selinger 2001-2019
</metadata>
<g transform="translate(0.000000,1125.000000) scale(0.100000,-0.100000)"
fill="#000000" stroke="none">
<path d="M4820 10709 c-457 -171 -638 -252 -789 -353 -46 -31 -86 -56 -88 -56
-3 0 -2 38 2 84 8 93 -2 126 -38 126 -34 0 -71 -28 -207 -154 -72 -68 -146
-127 -175 -141 -47 -23 -54 -24 -113 -13 -179 33 -405 -78 -525 -260 -25 -37
-53 -90 -63 -119 l-18 -52 -56 -6 c-30 -3 -95 -1 -145 4 -216 26 -278 13 -389
-81 -231 -196 -855 -809 -887 -870 -11 -21 -37 -88 -58 -149 -22 -61 -56 -136
-76 -166 -40 -61 -203 -227 -457 -467 -276 -259 -381 -407 -482 -679 -73 -194
-111 -371 -185 -852 -27 -176 -55 -352 -62 -391 l-13 -72 106 -213 c119 -240
191 -417 243 -599 40 -139 85 -351 85 -399 0 -64 -36 -89 -98 -71 l-32 9 0
-139 c0 -239 -3 -229 335 -989 205 -462 348 -820 406 -1020 7 -23 18 -44 23
-46 6 -2 23 -6 38 -9 36 -8 95 -60 117 -105 11 -20 29 -85 41 -146 68 -338
223 -581 440 -690 110 -55 158 -65 319 -65 242 0 332 -25 459 -129 125 -101
286 -159 471 -168 l113 -6 284 -148 c275 -143 419 -224 514 -288 52 -36 87
-39 123 -11 33 26 39 11 30 -72 l-6 -61 44 7 c127 18 406 46 574 57 310 19
613 -3 841 -61 105 -27 114 -28 159 -14 63 18 175 18 250 -1 64 -16 200 -78
276 -125 63 -38 155 -49 189 -22 22 18 23 23 13 56 -11 36 -11 37 27 56 50 25
180 62 298 85 92 17 94 17 120 -2 15 -11 48 -46 74 -77 52 -65 75 -84 118 -96
l30 -9 0 87 c0 98 18 148 60 169 15 8 68 13 137 13 l113 0 -6 73 c-4 45 -2 87
5 108 14 43 409 447 464 475 l39 19 76 -83 c42 -45 80 -82 85 -82 15 0 6 81
-14 136 -14 36 -42 79 -81 122 -32 36 -58 72 -56 81 2 9 39 27 103 48 120 40
174 40 236 -1 22 -15 43 -25 45 -23 3 3 -5 24 -17 47 -26 49 -21 64 32 95 26
15 59 21 142 26 86 4 113 9 135 26 46 34 70 80 83 158 l12 74 115 138 c270
323 429 565 615 938 115 231 275 610 263 622 -3 3 -26 -10 -53 -28 -78 -53
-223 -207 -292 -309 -92 -138 -126 -161 -179 -124 -13 9 -26 13 -30 9 -4 -3
-19 -43 -34 -88 l-27 -82 6 68 c3 37 3 67 0 67 -3 0 -98 -72 -210 -159 -502
-392 -1031 -775 -1464 -1061 -276 -183 -321 -204 -378 -177 -19 9 -46 34 -61
57 -15 22 -29 40 -32 40 -3 0 -31 -22 -61 -48 -66 -57 -97 -76 -117 -68 -21 8
-34 51 -25 83 l8 29 -84 2 c-47 1 -94 -3 -105 -9 -11 -6 -28 -31 -39 -57 -20
-47 -21 -47 -37 -26 -9 12 -22 30 -28 40 -21 35 -41 9 -49 -63 -6 -53 -9 -63
-16 -46 -15 42 -68 24 -97 -33 l-18 -35 -36 53 c-44 66 -124 155 -132 147 -4
-3 3 -26 14 -50 31 -70 23 -160 -10 -99 -19 35 -28 22 -35 -50 -6 -58 -11 -72
-29 -82 -11 -6 -48 -37 -82 -69 -69 -65 -63 -63 -234 -79 -126 -12 -341 -48
-438 -74 -45 -12 -59 -12 -105 0 -286 77 -718 148 -1087 179 -376 31 -577 92
-873 262 l-78 45 44 28 c53 33 71 72 68 143 -1 34 -13 35 -31 2 -17 -32 -64
-53 -160 -73 l-78 -16 -114 109 c-62 61 -275 261 -473 445 -570 530 -909 871
-1080 1085 -70 87 -139 227 -254 511 -86 214 -127 304 -136 304 -2 0 -15 -11
-29 -25 -14 -14 -32 -25 -41 -25 -40 0 -103 116 -91 166 15 59 64 76 109 36 9
-8 19 -13 22 -10 3 2 -19 174 -49 381 -43 303 -52 386 -45 424 5 27 35 102 66
167 l57 120 72 650 c86 774 110 899 229 1196 166 413 442 781 925 1234 454
425 475 443 625 529 50 28 203 118 340 200 571 341 840 467 1175 552 240 60
390 77 720 79 229 2 270 4 305 19 90 40 115 98 115 270 l0 109 -40 -7 c-63
-11 -95 2 -183 72 -71 57 -173 115 -195 112 -4 -1 -54 -19 -112 -40z m-3900
-6661 c32 -76 67 -149 77 -164 l17 -27 -24 13 c-76 40 -99 73 -111 156 -5 39
-23 92 -44 134 -43 85 -44 93 -5 55 18 -18 54 -86 90 -167z"/>
<path d="M6409 10411 c-98 -7 -127 -21 -161 -81 -16 -28 -28 -38 -38 -34 -73
30 -291 27 -365 -5 -115 -50 -157 -193 -90 -306 50 -85 190 -190 325 -243 91
-36 206 -61 329 -73 64 -5 130 -17 148 -24 71 -31 423 -249 663 -410 140 -94
437 -302 660 -461 554 -397 495 -359 561 -359 45 1 73 9 153 48 54 26 100 47
103 47 3 0 3 -21 0 -47 -14 -126 32 -323 130 -549 47 -109 86 -159 166 -216
147 -104 205 -186 228 -321 12 -75 1 -188 -28 -272 l-15 -46 56 -111 c100
-195 208 -342 325 -442 30 -25 58 -46 62 -46 12 0 28 -54 32 -112 6 -96 60
-127 120 -70 l30 27 -7 -60 c-40 -350 -45 -490 -22 -608 7 -37 15 -70 19 -73
3 -3 8 18 11 48 3 29 13 123 22 208 29 276 78 522 145 719 17 51 28 95 25 98
-12 13 -57 -18 -83 -57 -43 -64 -84 -110 -98 -110 -9 0 -13 55 -18 228 -6 243
-17 366 -76 831 l-38 296 -503 805 c-276 443 -527 835 -557 872 -82 100 -259
266 -388 363 -260 195 -535 337 -865 445 -185 61 -291 87 -412 100 -100 10
-398 11 -549 1z"/>
<path d="M5039 6221 c-43 -36 -76 -106 -59 -126 8 -9 8 -32 0 -76 -12 -79 -13
-216 -1 -221 5 -1 16 -52 25 -111 8 -59 18 -112 21 -118 12 -18 24 -8 31 25 4
25 10 33 21 29 11 -4 14 1 13 23 -3 49 0 74 9 74 5 0 11 -8 15 -17 3 -10 14
-31 23 -48 37 -61 35 -60 48 -42 11 15 14 14 35 -8 13 -14 29 -25 37 -25 15 0
18 36 3 45 -5 3 -10 12 -10 18 0 7 8 2 18 -11 20 -26 32 -20 32 15 0 12 5 23
10 23 16 0 12 59 -6 90 -13 21 -15 40 -10 83 9 66 36 101 36 46 1 -32 1 -33
15 -15 8 11 15 28 15 38 0 28 67 24 112 -7 20 -14 46 -25 57 -25 20 0 21 4 15
73 -3 39 -5 98 -4 129 2 78 -15 138 -39 138 -22 0 -45 -25 -36 -40 3 -5 1 -10
-4 -10 -6 0 -11 5 -11 10 0 19 -39 10 -45 -11 l-7 -21 -22 21 c-12 12 -26 21
-30 21 -4 0 -24 12 -43 28 -33 24 -46 27 -132 30 -94 3 -97 3 -132 -27z"/>
<path d="M2094 5520 c-31 -12 -64 -59 -64 -91 0 -68 33 -97 150 -131 47 -14
62 -37 40 -63 -18 -21 -79 -18 -124 6 -36 19 -39 19 -57 3 -24 -21 -24 -40 -1
-53 14 -9 13 -10 -10 -11 -18 0 -28 -5 -28 -15 0 -13 48 -15 375 -15 l375 0 0
60 0 60 39 0 c35 0 41 -4 80 -60 l42 -60 85 0 85 0 19 45 19 45 85 0 84 0 19
-45 18 -45 663 0 662 0 0 75 0 75 85 0 85 0 0 -75 0 -75 1060 0 1060 0 0 60 0
60 38 0 c35 0 41 -5 80 -60 l43 -60 449 0 c393 0 450 2 450 15 0 12 -14 15
-65 15 l-65 0 0 57 c0 53 5 65 65 164 36 58 65 109 65 113 0 3 -17 6 -37 6
-37 0 -40 -3 -81 -75 -24 -41 -45 -75 -47 -75 -2 0 -23 34 -47 75 -41 72 -44
75 -80 75 -21 0 -38 -3 -38 -6 0 -3 29 -55 65 -114 59 -99 65 -113 65 -164 l0
-56 -125 0 -125 0 0 140 0 140 55 0 c54 0 55 0 55 30 l0 30 -145 0 -145 0 0
-30 c0 -30 1 -30 55 -30 l55 0 0 -140 0 -140 -80 0 -80 0 0 170 0 170 -35 0
-35 0 0 -170 0 -170 -39 0 c-36 0 -42 5 -76 51 l-36 50 24 19 c55 43 61 140
13 189 -25 25 -33 26 -146 29 l-120 4 0 -171 0 -171 -65 0 -65 0 22 41 c18 34
22 64 26 170 l5 129 -42 0 -41 0 0 -125 c0 -120 -1 -127 -25 -150 -33 -34 -83
-34 -116 1 -22 24 -24 34 -27 150 l-4 124 -35 0 -35 0 4 -139 c3 -127 5 -142
26 -170 l23 -31 -72 0 c-72 0 -72 0 -54 20 18 20 18 21 -3 42 l-22 22 -39 -22
c-63 -36 -128 -23 -165 32 -20 32 -21 105 0 134 36 52 115 67 173 31 l34 -21
25 25 24 24 -37 29 c-81 61 -226 38 -281 -45 -47 -72 -41 -180 15 -240 l29
-31 -59 0 c-52 0 -59 2 -59 20 0 19 -7 20 -100 20 l-100 0 0 45 0 45 85 0 85
0 0 30 0 30 -85 0 -85 0 0 45 0 45 95 0 95 0 0 30 0 30 -130 0 -130 0 0 -170
0 -170 -51 0 c-50 0 -50 0 -35 22 23 32 21 99 -3 125 -11 12 -41 29 -68 38
-85 30 -113 44 -113 59 0 39 71 51 128 22 29 -15 31 -15 46 10 9 13 14 29 10
35 -20 34 -150 52 -197 28 -37 -19 -57 -52 -57 -96 0 -59 29 -88 114 -116 38
-12 74 -29 80 -39 28 -46 -69 -66 -133 -27 l-33 20 -24 -22 c-22 -21 -23 -24
-7 -41 16 -17 11 -18 -135 -18 l-152 0 0 140 0 140 55 0 c54 0 55 0 55 30 l0
30 -145 0 -145 0 0 -30 c0 -30 1 -30 55 -30 l55 0 0 -140 0 -140 -85 0 -85 0
0 170 0 170 -35 0 -35 0 0 -75 0 -75 -85 0 -85 0 0 75 0 75 -35 0 -35 0 0
-170 0 -170 -52 0 c-49 0 -50 1 -35 18 12 13 17 37 17 80 l0 62 -35 0 -35 0 0
-50 c0 -49 -1 -49 -39 -61 -103 -31 -196 75 -147 169 30 58 123 82 175 45 23
-16 25 -15 43 7 24 29 20 41 -23 63 -25 13 -51 17 -100 15 -78 -4 -126 -31
-158 -89 -41 -73 -19 -201 41 -243 21 -15 18 -16 -55 -16 l-77 0 0 170 0 170
-35 0 -35 0 0 -170 0 -170 -30 0 c-23 0 -30 4 -30 20 0 18 -7 20 -80 20 l-80
0 0 150 0 150 -35 0 -35 0 0 -170 0 -170 -85 0 -85 0 0 62 c0 57 4 67 61 162
34 56 64 104 66 109 2 4 -14 7 -36 7 -38 0 -41 -3 -77 -62 -58 -98 -52 -98
-102 -13 -43 73 -45 75 -84 75 -28 0 -37 -3 -32 -12 4 -7 33 -56 65 -109 55
-90 59 -100 59 -158 l0 -61 -49 0 -48 0 -74 168 -75 167 -39 3 -40 3 -75 -171
c-52 -119 -80 -170 -91 -170 -9 0 -32 23 -52 51 l-35 51 31 28 c29 26 32 34
32 89 0 53 -4 64 -28 88 -26 27 -32 28 -147 31 l-120 4 0 -171 0 -171 -80 0
-80 0 0 140 0 140 55 0 c54 0 55 0 55 30 l0 30 -145 0 -145 0 0 -30 c0 -30 1
-30 55 -30 l55 0 0 -140 0 -140 -85 0 c-77 0 -102 8 -75 25 6 3 10 29 10 56 0
63 -26 90 -110 113 -66 19 -92 38 -83 62 9 25 47 34 90 22 21 -5 43 -14 50
-20 12 -9 43 25 43 48 0 32 -142 56 -196 34z m802 -85 c19 -26 17 -52 -6 -75
-16 -16 -33 -20 -80 -20 l-60 0 0 61 0 61 66 -4 c50 -3 70 -9 80 -23z m4186 7
c18 -18 14 -73 -7 -88 -11 -8 -44 -14 -77 -14 l-58 0 0 61 0 61 65 -4 c36 -2
70 -9 77 -16z"/>
</g>
</svg>
