<?xml version="1.0" standalone="no"?>
<!DOCTYPE svg PUBLIC "-//W3C//DTD SVG 20010904//EN"
 "http://www.w3.org/TR/2001/REC-SVG-20010904/DTD/svg10.dtd">
<svg version="1.0" xmlns="http://www.w3.org/2000/svg"
 width="300.000000pt" height="338.000000pt" viewBox="0 0 300.000000 338.000000"
 preserveAspectRatio="xMidYMid meet">
<metadata>
Created by potrace 1.10, written by Peter Selinger 2001-2011
</metadata>
<g transform="translate(0.000000,338.000000) scale(0.100000,-0.100000)"
fill="#000000" stroke="none">
<path d="M1360 3182 c-63 -26 -130 -57 -148 -70 l-32 -23 0 35 c0 20 -3 36 -6
36 -3 0 -31 -22 -60 -49 -51 -47 -58 -50 -104 -49 -62 2 -123 -36 -153 -96
l-20 -38 -61 6 c-78 8 -86 3 -248 -153 -110 -106 -129 -129 -144 -174 -14 -44
-33 -68 -119 -152 -170 -165 -200 -226 -240 -494 l-21 -146 37 -80 c48 -102
76 -187 85 -253 6 -49 5 -52 -16 -52 -22 0 -23 -3 -17 -62 4 -50 22 -101 87
-248 46 -102 95 -220 110 -264 20 -55 35 -82 51 -90 18 -9 28 -29 42 -81 24
-91 58 -149 109 -182 32 -22 55 -28 122 -32 69 -5 89 -11 124 -34 50 -35 106
-56 151 -57 31 0 183 -73 253 -122 18 -13 36 -17 49 -13 19 6 21 4 16 -14 -6
-25 -9 -25 138 -10 82 8 131 8 204 -2 53 -6 125 -13 161 -14 51 -1 77 -7 117
-29 52 -29 88 -29 77 -2 -6 15 28 29 96 41 30 5 39 2 64 -24 35 -36 51 -40 43
-9 -10 37 9 58 54 58 39 0 41 1 35 25 -5 20 3 35 46 82 29 32 64 68 79 81 l27
22 26 -32 c23 -30 26 -31 26 -11 0 12 -12 35 -26 52 -14 17 -23 35 -19 40 9
16 76 25 95 13 15 -9 17 -8 13 8 -6 22 20 38 61 38 31 -1 56 23 56 54 0 9 29
53 64 97 35 43 83 112 107 152 46 79 133 269 126 275 -6 6 -117 -115 -117
-127 0 -5 -11 -9 -25 -9 -17 0 -25 -6 -25 -17 0 -10 -5 -25 -11 -33 -8 -11 -9
-8 -4 14 l6 28 -38 -28 c-335 -253 -536 -394 -563 -394 -10 0 -23 7 -30 15
-11 13 -15 12 -37 -5 -27 -21 -43 -19 -43 6 0 20 -47 18 -59 -3 -9 -16 -12
-16 -21 -3 -7 12 -10 8 -10 -15 0 -23 -3 -27 -10 -15 -9 13 -12 13 -24 -3 -14
-18 -15 -17 -31 12 -19 38 -29 40 -21 5 5 -17 3 -23 -4 -19 -5 3 -10 -1 -10
-10 0 -29 -52 -63 -105 -70 -27 -3 -73 -11 -100 -17 -41 -8 -67 -6 -145 10
-52 11 -157 28 -232 36 -149 17 -233 44 -298 94 -3 2 3 8 13 13 9 6 17 20 16
32 0 12 -3 17 -5 10 -3 -7 -20 -17 -38 -23 -33 -10 -34 -10 -142 91 -60 57
-177 170 -260 253 l-151 151 -48 117 c-37 88 -52 114 -61 107 -9 -7 -17 -4
-29 14 -19 30 -10 60 16 52 13 -4 17 -2 14 7 -3 7 -12 59 -20 116 -15 100 -15
105 5 150 15 33 28 108 45 257 26 226 46 310 101 416 91 173 311 387 530 516
170 99 220 124 304 151 92 30 171 42 267 42 109 0 123 8 123 65 0 33 -4 45
-15 45 -8 0 -34 14 -57 30 -22 17 -44 30 -47 29 -3 0 -58 -21 -121 -47z m163
-28 c56 -38 37 -54 -62 -54 -42 0 -103 -4 -135 -10 -33 -5 -62 -8 -64 -5 -8 8
183 93 213 95 6 0 27 -12 48 -26z m-358 -90 c0 -7 -47 -36 -105 -65 -226 -116
-314 -176 -456 -312 -154 -148 -219 -229 -274 -342 -55 -114 -67 -164 -94
-400 -16 -138 -32 -228 -45 -262 -11 -28 -18 -61 -16 -73 13 -66 17 -188 6
-194 -16 -10 -14 -58 5 -84 12 -18 13 -26 4 -37 -19 -23 -39 -18 -47 13 -12
46 -8 90 10 110 9 10 17 30 17 44 0 46 -49 197 -91 280 l-41 82 12 71 c58 330
70 358 224 514 80 81 123 134 144 176 22 45 61 90 156 183 l126 122 64 0 c83
0 91 4 127 56 35 51 73 74 124 74 39 0 83 19 105 45 14 17 45 16 45 -1z m-887
-1841 c14 -32 28 -62 30 -66 3 -5 -5 -4 -17 2 -11 7 -24 24 -27 39 -4 15 -13
39 -21 55 -9 17 -10 27 -3 27 6 0 23 -26 38 -57z m-58 21 c16 -40 12 -49 -10
-21 -22 27 -26 47 -10 47 6 0 15 -12 20 -26z m30 -89 c13 -14 29 -25 36 -25 6
0 44 -38 83 -84 87 -103 450 -444 500 -470 20 -10 50 -29 66 -41 65 -46 142
-69 295 -85 58 -6 150 -20 205 -32 89 -18 109 -19 185 -8 115 16 142 26 176
60 16 16 37 30 48 30 10 0 40 12 67 26 32 18 54 24 66 19 32 -15 136 -13 168
3 51 25 223 144 378 261 82 61 154 111 161 111 7 0 21 7 32 15 10 8 23 15 27
15 16 0 -55 -118 -124 -210 -39 -50 -74 -102 -79 -114 -5 -14 -20 -26 -37 -30
-72 -17 -166 -68 -181 -98 -7 -15 -37 -51 -66 -78 -30 -28 -66 -69 -82 -91
-38 -55 -76 -74 -149 -74 -42 -1 -75 -8 -109 -24 l-49 -24 -51 19 c-28 10 -78
19 -111 20 -33 0 -94 6 -135 13 -49 8 -119 10 -202 5 l-126 -6 -104 52 c-56
29 -128 66 -158 81 -30 16 -68 29 -85 29 -41 1 -98 23 -146 56 -33 22 -55 29
-123 34 -63 5 -91 12 -114 29 -39 28 -76 90 -91 156 -7 28 -26 68 -43 89 -17
21 -48 82 -69 135 -20 53 -53 131 -73 175 -20 43 -36 80 -36 82 0 13 30 0 50
-21z"/>
<path d="M1888 3113 c-12 -11 -35 -16 -78 -17 -49 -1 -65 -5 -76 -20 -49 -67
35 -148 170 -164 75 -10 164 -61 436 -256 96 -69 183 -126 193 -126 10 0 31 7
46 15 l28 14 6 -52 c8 -76 47 -158 95 -197 53 -42 66 -76 58 -148 -6 -55 -5
-61 32 -118 22 -32 53 -72 71 -88 18 -18 31 -40 31 -54 0 -19 4 -23 19 -19 17
4 18 -2 13 -107 -2 -61 -2 -109 1 -106 3 3 11 46 17 95 10 81 27 165 45 220 5
13 -3 8 -23 -14 l-29 -34 -7 109 c-11 164 -30 299 -47 325 -9 13 -78 125 -155
249 -85 138 -159 245 -190 277 -94 95 -246 178 -400 218 -82 21 -234 20 -256
-2z m297 -53 c118 -37 237 -104 313 -178 55 -53 98 -113 211 -295 78 -126 146
-238 150 -251 13 -33 43 -314 36 -327 -9 -14 -41 15 -71 67 -20 34 -23 49 -18
87 9 63 -16 127 -67 170 -43 38 -76 103 -85 171 -10 67 -34 88 -92 81 l-47 -6
-168 120 c-274 196 -356 243 -459 256 -90 12 -156 85 -89 98 17 4 38 4 46 1 8
-4 25 1 38 9 13 8 32 17 42 20 40 12 191 -2 260 -23z"/>
<path d="M1524 1870 c-26 -10 -38 -82 -25 -148 12 -62 18 -61 27 5 7 53 8 56
16 28 4 -16 6 -35 4 -41 -5 -12 29 -36 38 -27 3 4 6 30 6 59 l0 53 35 -15 c19
-7 36 -14 38 -14 4 0 -3 70 -9 88 -3 11 -7 10 -20 -3 -14 -14 -18 -14 -33 -2
-23 21 -52 27 -77 17z m51 -82 c2 -7 0 -29 -4 -48 -9 -35 -13 -28 -15 33 -2
27 11 37 19 15z"/>
<path d="M617 1654 c-17 -18 -6 -45 23 -55 39 -14 40 -33 1 -26 -20 4 -31 2
-35 -8 -4 -13 13 -15 110 -15 101 0 115 2 112 16 -4 25 19 28 32 5 11 -22 70
-31 70 -11 0 6 14 10 30 10 17 0 30 -4 30 -10 0 -6 75 -10 206 -10 201 0 205
0 199 20 -5 17 -2 20 25 20 27 0 32 -3 27 -20 -5 -20 0 -20 314 -20 312 0 319
0 319 20 0 11 4 20 8 20 5 0 17 -9 27 -20 17 -18 30 -20 154 -19 75 1 126 4
114 6 -29 5 -29 26 -2 69 23 37 9 47 -15 12 l-16 -22 -16 22 c-12 18 -25 22
-70 22 -30 0 -54 -4 -54 -10 0 -5 9 -10 20 -10 17 0 19 -6 17 -40 -2 -37 -4
-40 -31 -40 -29 0 -29 0 -23 50 5 40 3 50 -8 50 -11 0 -15 -13 -15 -50 0 -36
-4 -50 -14 -50 -19 0 -25 21 -12 43 17 27 -5 51 -48 55 l-36 3 0 -50 c0 -44
-3 -51 -19 -51 -17 0 -19 4 -10 32 13 47 11 68 -6 68 -11 0 -15 -12 -15 -46 0
-41 -2 -45 -22 -42 -19 2 -24 10 -26 46 -2 23 -8 42 -14 42 -7 0 -9 -18 -6
-50 4 -38 2 -50 -8 -50 -8 0 -14 4 -14 9 0 5 -14 8 -31 7 -39 -1 -60 24 -39
49 10 12 23 15 43 11 20 -4 27 -2 25 7 -3 6 -19 13 -36 15 -42 4 -71 -36 -53
-75 11 -24 10 -25 -11 -19 -13 3 -33 6 -45 6 -14 0 -23 6 -23 16 0 12 6 15 25
10 14 -4 25 -2 25 4 0 5 -11 10 -25 10 -16 0 -25 6 -25 15 0 10 10 15 30 15
17 0 30 5 30 10 0 6 -18 10 -40 10 l-40 0 0 -50 c0 -37 -4 -50 -15 -50 -9 0
-12 6 -9 15 4 10 -5 21 -25 32 -37 22 -40 33 -6 33 14 0 25 5 25 11 0 6 -14 9
-32 7 -26 -2 -34 -8 -36 -26 -3 -18 3 -25 27 -33 40 -14 40 -33 1 -27 -17 3
-33 1 -36 -4 -3 -4 -23 -8 -45 -8 -39 0 -39 0 -39 40 0 29 4 40 15 40 8 0 15
5 15 10 0 6 -20 10 -45 10 -25 0 -45 -4 -45 -10 0 -5 9 -10 20 -10 17 0 20 -7
20 -40 0 -36 -2 -40 -25 -40 -23 0 -25 3 -25 50 0 36 -4 50 -14 50 -9 0 -12
-8 -8 -25 4 -22 1 -25 -28 -25 -29 0 -32 2 -26 25 5 18 2 25 -9 25 -11 0 -15
-12 -15 -50 0 -27 -4 -50 -10 -50 -5 0 -10 11 -10 25 0 14 -4 25 -10 25 -5 0
-10 -9 -10 -20 0 -24 -32 -27 -51 -4 -19 23 1 49 37 49 37 1 38 19 1 23 -51 6
-88 -53 -55 -86 9 -9 7 -12 -10 -12 -20 0 -22 5 -22 50 0 28 -4 50 -10 50 -5
0 -10 -23 -10 -51 0 -43 -3 -50 -16 -45 -9 3 -24 6 -35 6 -16 0 -19 7 -19 45
0 25 -4 45 -10 45 -5 0 -10 -22 -10 -50 0 -47 -2 -50 -25 -50 -31 0 -32 21 -4
66 17 28 18 34 5 34 -8 0 -18 -9 -21 -20 -3 -11 -10 -20 -15 -20 -5 0 -14 9
-20 20 -6 11 -15 20 -21 20 -6 0 -2 -16 10 -36 26 -44 27 -64 2 -64 -13 0 -25
15 -39 50 -12 28 -26 50 -31 50 -6 0 -20 -22 -32 -50 -23 -53 -28 -57 -47 -38
-8 8 -8 15 -1 24 6 7 9 23 7 36 -2 19 -10 24 -40 26 -31 3 -38 0 -39 -15 -4
-80 -3 -78 -31 -81 -27 -3 -28 -1 -28 37 0 34 3 41 20 41 11 0 20 5 20 10 0 6
-20 10 -45 10 -25 0 -45 -4 -45 -10 0 -5 7 -10 15 -10 11 0 15 -11 15 -40 0
-33 -3 -40 -20 -40 -14 0 -20 7 -20 21 0 13 -10 23 -30 30 -36 13 -40 32 -5
27 13 -2 25 2 27 7 3 12 -54 19 -65 9z m1723 -76 c0 -14 -8 -18 -34 -18 -32 0
-34 2 -38 40 -3 33 0 40 17 42 22 4 55 -35 55 -64z m-1472 45 c-2 -10 -12 -18
-23 -18 -11 0 -21 8 -23 18 -3 13 3 17 23 17 20 0 26 -4 23 -17z m1260 0 c-2
-10 -13 -19 -26 -21 -17 -3 -22 2 -22 17 0 16 6 21 26 21 19 0 25 -5 22 -17z"/>
</g>
</svg>
